<?xml version="1.0" standalone="no"?>
<!DOCTYPE svg PUBLIC "-//W3C//DTD SVG 20010904//EN"
 "http://www.w3.org/TR/2001/REC-SVG-20010904/DTD/svg10.dtd">
<svg version="1.0" xmlns="http://www.w3.org/2000/svg"
 width="1024.000000pt" height="1024.000000pt" viewBox="0 0 1024.000000 1024.000000"
 preserveAspectRatio="xMidYMid meet">

<g transform="translate(0.000000,1024.000000) scale(0.100000,-0.100000)"
fill="#000000" stroke="none">
<path d="M5168 7373 l-3 -1578 -77 -210 c-42 -115 -97 -264 -121 -330 l-45
-120 -48 -3 c-27 -1 -73 -7 -103 -12 -90 -16 -129 -13 -165 15 -45 34 -144 77
-251 110 -107 32 -408 150 -518 202 -52 25 -79 44 -82 58 -7 30 -84 348 -173
715 -44 179 -94 385 -111 459 -47 194 -85 285 -146 347 -50 51 -243 176 -329
215 -34 15 -56 35 -86 79 -22 32 -44 62 -50 65 -5 3 -10 15 -10 26 0 16 7 19
53 19 97 0 157 64 196 210 12 44 31 99 42 124 11 25 34 98 51 163 26 99 31
139 33 248 l2 130 61 61 c76 78 91 120 73 202 -7 32 -17 77 -22 101 -5 24 -10
46 -12 47 -1 2 -32 -1 -67 -6 -127 -19 -215 -13 -319 21 -79 26 -118 32 -216
36 -187 8 -296 -29 -353 -120 -14 -23 -44 -56 -66 -72 -94 -71 -121 -154 -113
-340 5 -106 13 -153 42 -255 50 -178 52 -204 25 -315 -22 -92 -24 -95 -51 -95
-27 0 -33 -9 -83 -108 l-54 -108 -129 -62 c-70 -35 -209 -107 -307 -160 -143
-78 -192 -110 -243 -160 -73 -71 -95 -113 -118 -226 -19 -91 -16 -108 45 -311
21 -71 48 -168 60 -214 19 -80 22 -108 35 -297 l5 -80 -82 0 c-119 0 -178 -38
-233 -149 l-25 -51 2 -960 3 -961 29 -37 c35 -46 79 -74 128 -82 35 -6 36 -8
27 -33 -6 -14 -13 -65 -16 -113 -6 -86 -6 -87 24 -117 51 -50 73 -52 594 -49
l479 3 0 -236 c0 -130 -3 -527 -7 -882 l-6 -647 -374 0 c-242 0 -373 -4 -373
-10 0 -5 -12 -10 -27 -10 -66 -1 -145 -74 -159 -146 -8 -43 -1 -71 30 -117 14
-20 22 -38 18 -39 -4 -1 -72 -2 -152 -3 -395 -3 -398 -4 -394 -22 5 -17 210
-18 4137 -17 2273 1 4138 2 4145 3 6 0 12 8 12 16 0 13 -28 15 -196 15 -183 0
-196 1 -189 17 11 29 85 411 85 438 0 14 6 28 14 31 10 4 14 29 15 95 l2 89
-162 0 -162 0 6 53 c3 28 20 86 37 128 l31 76 57 13 c102 22 181 77 243 166
43 63 40 68 -39 61 -173 -17 -248 -83 -312 -277 -17 -52 -34 -102 -36 -110 -4
-10 -10 -3 -18 20 -49 133 -60 154 -115 210 -65 66 -100 80 -203 80 -48 0 -68
-4 -68 -12 0 -7 24 -42 53 -77 63 -79 124 -113 205 -117 l57 -3 37 -77 c54
-111 52 -120 -23 -128 -34 -3 -109 -6 -166 -6 l-105 0 4 -90 c2 -61 7 -93 16
-99 7 -4 17 -39 23 -77 15 -105 56 -303 74 -353 8 -24 15 -45 15 -47 0 -2 -67
-4 -150 -4 l-150 0 0 1245 0 1245 483 1 c265 1 493 4 507 8 15 4 32 21 42 41
17 33 18 179 18 2621 l0 2586 -1980 2 -1980 1 -2 -1577z m560 1402 c-3 -3 -9
2 -12 12 -6 14 -5 15 5 6 7 -7 10 -15 7 -18z m-286 -2 c22 -20 23 -51 1 -75
-22 -24 -52 -23 -80 4 -29 27 -29 36 -1 65 25 27 54 29 80 6z m248 -23 c27
-50 -38 -93 -82 -53 -25 23 -23 48 8 72 29 23 55 16 74 -19z m228 17 c21 -17
14 -65 -13 -83 -30 -20 -58 -11 -74 22 -25 56 36 100 87 61z m2607 -14 c-5
-10 -7 -23 -6 -30 2 -17 -13 -23 -29 -12 -10 5 -11 9 -3 9 7 0 10 7 6 17 -5
12 -3 14 7 8 10 -6 12 -4 7 9 -5 11 -3 15 5 10 8 -5 9 -1 4 12 -6 15 -4 16 5
7 7 -7 9 -19 4 -30z m-3015 2 c0 -8 6 -12 13 -10 7 3 16 -8 23 -29 10 -32 9
-34 -8 -25 -12 6 -25 6 -39 -1 -19 -11 -20 -10 -9 10 7 13 9 36 6 52 -3 18 -2
27 4 23 6 -3 10 -13 10 -20z m2880 15 c0 -5 -2 -10 -4 -10 -3 0 -8 5 -11 10
-3 6 -1 10 4 10 6 0 11 -4 11 -10z m84 -33 c-5 -50 -14 -62 -14 -19 0 16 -2
37 -5 45 -4 8 0 14 8 14 11 0 14 -11 11 -40z m184 29 c17 -10 15 -52 -4 -70
-14 -14 -18 -14 -45 -1 -30 16 -36 34 -19 65 10 18 44 21 68 6z m-319 -13 c-3
-33 1 -44 13 -37 7 4 8 3 4 -5 -6 -9 -11 -9 -22 0 -15 12 -19 41 -7 52 11 11
14 8 12 -10z m581 2 c29 -35 -30 -86 -70 -58 -13 9 -20 23 -18 36 3 20 13 25
69 36 4 0 12 -6 19 -14z m-3140 -23 c0 -13 5 -33 11 -45 10 -21 10 -21 -8 1
-13 15 -25 21 -36 16 -14 -5 -17 -1 -15 22 1 23 7 29 25 29 17 0 23 -6 23 -23z
m2640 0 c0 -15 -2 -15 -10 -2 -13 20 -13 33 0 25 6 -3 10 -14 10 -23z m-5550
-26 c30 -8 66 -19 80 -24 28 -12 -7 -10 -152 9 -82 11 -181 -1 -248 -29 -19
-8 -58 -37 -86 -66 -28 -28 -72 -68 -97 -89 -65 -52 -86 -100 -99 -215 -18
-174 -44 -151 -36 31 5 118 26 169 85 214 39 30 52 43 113 114 39 45 49 50
145 73 36 9 239 -3 295 -18z m3100 -16 c-6 -11 -13 -20 -16 -20 -2 0 0 9 6 20
6 11 13 20 16 20 2 0 0 -9 -6 -20z m-250 -24 c0 -2 -8 -10 -17 -17 -16 -13
-17 -12 -4 4 13 16 21 21 21 13z m-423 -112 c-3 -3 -12 -4 -19 -1 -8 3 -5 6 6
6 11 1 17 -2 13 -5z m596 -1 c-18 -2 -48 -2 -65 0 -18 2 -4 4 32 4 36 0 50 -2
33 -4z m64 1 c-3 -3 -12 -4 -19 -1 -8 3 -5 6 6 6 11 1 17 -2 13 -5z m3131 -49
c9 -7 2 -4735 -7 -4758 l-10 -26 -378 -3 c-208 -2 -431 -2 -495 0 l-118 3 0
155 c0 116 3 154 13 154 9 0 9 2 -1 9 -10 6 -13 49 -11 184 l1 177 168 0 168
0 6 93 c4 50 9 104 12 120 l6 27 -179 0 c-98 1 -258 0 -356 0 -123 -1 -183 3
-193 11 -9 7 -14 8 -14 1 0 -9 -173 -10 -603 -3 l-79 1 4 94 c1 52 -1 98 -5
102 -4 4 -7 -39 -7 -95 0 -72 -4 -103 -13 -106 -6 -3 -179 -4 -384 -3 l-372 3
55 160 c30 88 68 201 84 252 16 51 36 105 44 121 8 16 24 61 35 100 11 39 31
97 45 129 48 109 139 372 151 435 l7 37 -718 0 c-642 0 -719 -2 -729 -16 -9
-13 -13 16 -18 128 -5 114 -3 2305 2 2476 l1 43 1413 2 c1285 3 2467 -1 2475
-7z m-6275 -197 c71 -17 125 -22 236 -22 l143 -1 -4 -110 c-9 -188 -126 -606
-189 -670 -27 -28 -34 -30 -102 -29 -60 0 -86 6 -154 36 -106 47 -189 106
-237 168 -32 42 -56 62 -56 46 0 -10 74 -134 105 -175 35 -49 151 -162 199
-196 36 -25 31 -53 -15 -104 l-31 -34 -37 17 c-126 60 -296 169 -416 269 -27
23 -28 25 -12 41 9 10 29 56 44 104 16 53 39 102 57 124 28 34 36 38 79 38 52
0 56 14 7 25 -93 21 -149 155 -104 251 28 58 94 58 119 1 8 -18 19 -51 25 -75
12 -45 32 -53 38 -14 2 12 25 37 52 56 29 21 58 53 71 78 29 56 59 146 59 175
0 29 6 29 123 1z m-273 -223 c-30 -31 -35 -33 -42 -18 -11 28 -9 30 15 26 14
-3 29 2 36 11 8 9 16 16 19 16 3 0 -9 -16 -28 -35z m-330 -584 c0 -12 159
-137 225 -178 28 -17 94 -54 148 -83 53 -28 97 -56 97 -62 0 -25 -142 -198
-162 -198 -10 0 -302 243 -365 304 -24 22 -43 46 -43 54 0 20 80 172 91 172 5
0 9 -4 9 -9z m675 -223 l35 -53 0 -115 0 -114 -61 59 c-33 33 -74 76 -89 96
l-29 36 52 71 c29 39 53 71 54 72 1 0 18 -24 38 -52z m-800 13 c7 -12 342
-293 399 -335 l39 -30 37 42 37 42 18 -57 c16 -51 17 -85 11 -347 -4 -160 -7
-527 -7 -814 l0 -524 -22 6 c-12 4 -94 28 -182 55 l-160 48 -31 129 c-35 145
-199 864 -214 940 -33 167 -74 324 -95 359 -34 59 -107 122 -178 155 -67 31
-211 65 -230 54 -7 -4 -5 0 3 9 24 24 522 276 547 277 12 0 24 -4 28 -9z
m1050 -173 c22 -12 73 -45 112 -73 l72 -50 1 -96 c0 -103 -14 -310 -30 -424
-5 -38 -19 -153 -30 -255 -12 -102 -37 -309 -56 -460 -19 -151 -44 -347 -54
-435 -25 -198 -26 -205 -47 -205 -9 0 -54 12 -100 26 -99 31 -90 4 -98 299 -3
116 -12 284 -20 375 -15 186 -20 255 -40 665 -8 160 -15 343 -15 408 0 130 5
139 55 87 38 -40 65 -40 65 0 0 16 5 74 11 130 l12 100 61 -34 c34 -19 79 -45
101 -58z m-1555 -138 c125 -20 277 -115 313 -197 9 -21 26 -81 37 -133 11 -52
36 -169 55 -260 19 -91 57 -262 85 -380 41 -174 140 -615 140 -625 0 -1 -23
-5 -51 -9 -102 -14 -219 -74 -219 -113 0 -12 7 -10 33 9 50 39 113 68 169 78
49 10 64 7 283 -60 331 -101 636 -197 642 -204 8 -7 5 -319 -3 -385 l-7 -54
-106 6 c-103 6 -389 63 -756 151 -77 19 -165 40 -195 47 -110 25 -168 60 -205
124 -38 67 -135 372 -265 840 -108 385 -162 578 -186 662 -47 166 -50 195 -31
291 24 117 42 151 102 190 54 35 68 37 165 22z m1841 -250 c33 -131 217 -878
259 -1055 22 -93 42 -175 45 -182 2 -7 -13 -22 -33 -34 -96 -59 -183 -152
-198 -214 -5 -23 3 -15 36 33 41 62 113 128 171 158 33 17 3 27 354 -116 137
-55 287 -112 333 -127 l82 -26 -25 -33 c-34 -45 -95 -173 -95 -201 0 -42 -21
-34 -78 27 -31 35 -75 75 -97 90 -56 38 -263 110 -317 110 -27 0 -90 -19 -173
-51 -128 -50 -248 -89 -272 -89 -6 0 -15 9 -18 21 -9 29 -64 49 -149 55 -39 3
-75 9 -79 13 -11 11 4 122 15 115 5 -3 20 -23 34 -45 28 -45 60 -79 73 -79 5
0 -12 39 -39 88 -27 48 -51 103 -55 122 -3 21 15 193 44 420 57 433 96 809
107 1010 3 74 9 139 12 144 8 14 40 -66 63 -154z m-1980 -836 c-6 -22 -8 -14
-8 36 0 56 1 60 8 29 4 -20 5 -49 0 -65z m16 -26 c-3 -8 -6 -5 -6 6 -1 11 2
17 5 13 3 -3 4 -12 1 -19z m3723 -203 c-32 -93 -81 -233 -110 -310 -54 -147
-110 -307 -190 -542 -26 -77 -53 -149 -59 -160 -23 -36 0 49 49 182 27 72 69
191 93 265 53 158 162 463 216 605 21 55 41 109 45 119 4 10 8 17 10 15 3 -2
-22 -80 -54 -174z m1413 91 c-30 -101 -96 -275 -103 -271 -3 2 -5 -10 -6 -26
-1 -16 -17 -68 -36 -116 -48 -119 -93 -246 -90 -255 3 -11 -16 -10 -22 1 -4 5
0 12 6 14 9 4 10 6 1 6 -18 1 -27 -20 -13 -29 8 -5 10 -18 6 -36 -4 -16 -10
-41 -13 -56 -3 -16 -9 -28 -14 -28 -5 0 -9 -11 -9 -24 0 -13 -8 -30 -17 -37
-15 -12 -16 -12 -8 6 4 11 8 28 9 38 0 9 4 17 9 17 5 0 6 12 3 28 -10 40 -12
101 -3 95 4 -2 7 5 7 16 0 17 -6 21 -30 21 -36 0 -41 28 -9 48 11 7 18 19 15
27 -2 7 2 16 10 19 9 3 12 1 9 -4 -3 -6 1 -10 9 -10 9 0 16 9 16 20 0 12 -6
20 -12 19 -44 -5 -68 2 -68 21 0 14 7 20 21 20 11 0 18 4 15 9 -3 5 1 12 10
15 8 3 12 10 9 16 -3 5 0 7 9 4 11 -4 14 2 11 29 -3 39 6 59 25 55 10 -2 13 8
11 42 -2 25 -5 47 -7 49 -12 12 21 28 51 24 37 -4 33 -10 49 87 1 8 8 14 15
12 9 -2 9 3 1 18 -12 23 -19 160 -7 160 4 0 7 6 7 14 0 20 16 24 91 24 l66 0
-24 -82z m-940 65 c-83 -3 -155 -9 -159 -13 -4 -5 0 -8 9 -8 10 0 17 -4 17
-10 0 -5 12 -10 28 -9 l27 1 -25 8 c-32 10 -21 12 60 10 73 -2 111 -15 70 -24
-14 -3 -38 -7 -55 -9 -16 -2 7 -5 53 -6 l82 -1 0 -40 c0 -34 -3 -40 -22 -41
-13 -1 -30 -2 -38 -3 -10 -1 -16 -14 -18 -38 l-3 -37 38 2 c21 1 44 6 52 11 9
6 12 5 8 -1 -4 -7 11 -10 41 -10 39 0 54 -6 75 -27 14 -14 31 -26 37 -26 6 0
18 -7 26 -15 23 -23 81 -19 94 5 6 11 15 18 21 15 5 -4 9 35 9 99 0 97 2 106
19 106 10 0 46 3 80 6 56 6 61 5 55 -10 -5 -12 -9 -14 -14 -6 -4 6 -13 10 -21
8 -27 -6 -38 -34 -39 -95 l0 -63 40 0 c44 0 43 5 42 -112 0 -46 1 -48 28 -48
19 0 29 -6 33 -20 3 -13 0 -20 -9 -20 -8 0 -14 -3 -14 -7 0 -13 -53 -33 -87
-33 -32 0 -33 -1 -33 -40 0 -29 -4 -40 -15 -40 -12 0 -15 -16 -15 -80 l0 -80
-65 0 c-53 0 -65 -3 -65 -16 0 -9 -10 -27 -22 -40 -21 -22 -31 -24 -119 -24
l-97 0 -4 28 c-6 40 0 52 25 52 17 0 19 2 8 9 -11 7 -7 12 15 24 51 27 69 54
68 108 0 26 2 46 5 44 3 -1 7 9 8 23 l1 27 -12 -23 c-11 -21 -14 -22 -25 -8
-9 10 -30 16 -57 16 -36 0 -48 -6 -78 -36 -39 -41 -53 -83 -36 -114 6 -12 9
-28 6 -35 -3 -8 -1 -17 4 -20 22 -13 7 -20 -41 -18 l-50 1 3 -36 c3 -37 3 -37
-39 -40 l-43 -3 0 40 c0 30 4 41 15 41 8 0 15 5 15 10 0 6 -7 13 -15 16 -8 4
-15 17 -15 30 0 18 -5 24 -23 24 -21 0 -22 3 -19 80 4 72 2 80 -15 80 -14 0
-18 -8 -20 -35 -1 -24 2 -33 9 -29 7 4 8 2 4 -4 -4 -7 -27 -12 -52 -12 -46 0
-56 -13 -31 -39 10 -11 9 -12 -1 -6 -10 5 -13 1 -12 -11 1 -11 2 -38 1 -61
l-1 -43 -40 0 -40 0 0 40 0 40 -40 0 -40 0 0 -41 0 -40 -42 3 c-41 3 -43 4
-41 33 l2 30 -10 -34 c-6 -18 -12 -31 -15 -29 -8 8 8 68 18 68 6 0 4 8 -3 18
-11 14 -11 15 1 5 8 -7 31 -13 52 -13 38 0 38 0 38 39 0 22 5 43 10 46 6 3 10
15 10 26 0 11 -4 17 -10 14 -5 -3 -10 -1 -10 4 0 6 5 11 10 11 6 0 10 5 10 10
0 6 -8 10 -18 10 -25 0 -45 85 -23 103 12 10 14 9 8 -5 -3 -10 -2 -20 3 -23 5
-3 6 11 4 31 -2 20 1 43 7 50 6 8 8 14 3 14 -5 0 -18 -19 -29 -43 -18 -39 -19
-48 -7 -96 14 -58 7 -77 -31 -83 -19 -3 -22 -9 -21 -43 1 -22 -1 -35 -3 -28
-2 7 -11 9 -19 6 -7 -3 -11 -10 -7 -16 3 -5 -2 -16 -12 -23 -14 -10 -16 -22
-12 -51 3 -21 3 -32 0 -25 -4 10 -8 8 -18 -5 -11 -15 -11 -9 0 32 15 59 36
107 50 117 5 4 6 8 2 8 -4 0 -3 9 3 21 6 11 18 46 26 77 17 64 111 329 126
352 8 13 9 13 5 0 -2 -8 0 -25 4 -37 6 -16 4 -27 -7 -38 -9 -8 -11 -15 -5 -15
16 0 24 20 28 72 3 37 1 48 -8 42 -8 -4 -9 -3 -5 4 15 24 31 1 28 -38 -4 -40
-4 -40 32 -40 26 0 34 4 30 14 -7 18 7 26 50 28 19 1 33 5 31 9 -3 4 1 14 9
22 11 11 33 14 78 12 35 -2 52 -1 38 1 -14 3 -35 10 -47 16 -12 6 -31 8 -42 5
-12 -3 -24 -1 -27 4 -3 5 0 9 5 9 6 0 11 4 11 10 0 5 -42 11 -92 13 -51 1 26
3 172 3 210 0 233 -1 113 -5z m632 0 c-86 -5 -103 -8 -77 -14 17 -5 32 -13 32
-18 0 -11 -68 -11 -95 1 -14 6 -7 8 25 5 37 -4 33 -2 -20 10 -42 10 -66 12
-68 5 -5 -14 -32 -13 -32 1 0 7 -12 10 -29 7 -17 -2 -28 -1 -25 3 2 4 93 7
201 6 162 0 178 -2 88 -6z m-928 -17 c-3 -3 -12 -4 -19 -1 -8 3 -5 6 6 6 11 1
17 -2 13 -5z m743 -26 c21 -7 19 -7 -9 -3 -18 3 -46 5 -62 5 -16 0 -29 4 -29
9 0 10 57 4 100 -11z m220 8 c0 -9 -10 -13 -29 -12 -23 0 -27 4 -19 13 14 17
48 16 48 -1z m-4792 -102 c20 -68 77 -258 155 -509 62 -203 104 -273 189 -316
45 -23 349 -102 612 -158 105 -23 194 -41 198 -41 4 0 8 -4 8 -10 0 -6 -132
-10 -375 -10 l-375 0 0 -74 0 -74 -117 -6 c-65 -4 -157 -9 -204 -12 -72 -5
-88 -3 -102 11 -16 15 -17 70 -17 609 0 326 -3 615 -6 642 -7 65 8 41 34 -52z
m4299 -30 c-3 -3 -12 -4 -19 -1 -8 3 -5 6 6 6 11 1 17 -2 13 -5z m-82 -32 c-3
-3 -11 0 -18 7 -9 10 -8 11 6 5 10 -3 15 -9 12 -12z m582 -124 c-3 -8 -6 -5
-6 6 -1 11 2 17 5 13 3 -3 4 -12 1 -19z m-17 -13 c0 -1 -12 -2 -26 -2 -17 0
-22 2 -13 7 10 7 39 3 39 -5z m4 -27 c-3 -4 -11 -5 -19 -1 -21 7 -19 12 4 10
11 0 18 -5 15 -9z m-913 -221 c-10 -9 -11 -8 -5 6 3 10 9 15 12 12 3 -3 0 -11
-7 -18z m-754 -162 c17 -3 75 1 128 10 116 20 127 17 119 -27 -18 -102 -22
-108 -79 -134 -30 -13 -80 -41 -112 -61 -81 -54 -124 -53 -229 8 -55 32 -80
53 -82 68 -5 32 15 83 58 150 l39 61 63 -34 c35 -19 77 -37 95 -41z m1097 55
c13 -13 -16 -6 -39 8 -19 12 -18 13 5 6 14 -3 29 -10 34 -14z m-1823 -16 c85
-25 200 -74 247 -106 58 -40 122 -122 122 -158 0 -49 -37 -47 -145 7 -71 36
-156 63 -200 63 -59 0 -133 -30 -227 -93 -51 -34 -111 -69 -133 -79 -41 -17
-128 -23 -184 -12 l-31 7 1 76 c0 42 3 94 7 116 7 37 10 40 49 47 23 4 108 32
190 63 124 48 218 80 244 84 3 1 30 -6 60 -15z m1580 -17 c-10 -9 -11 -8 -5 6
3 10 9 15 12 12 3 -3 0 -11 -7 -18z m-2268 -41 c54 -8 101 -16 104 -19 2 -3 1
-91 -3 -196 l-7 -191 -115 0 -115 0 6 148 c4 81 7 175 7 210 0 43 4 62 13 62
6 0 56 -7 110 -14z m1783 -22 c-5 -17 -3 -23 4 -19 14 9 12 -6 -4 -27 -7 -10
-16 -14 -21 -10 -4 4 -4 -3 -1 -15 5 -14 3 -23 -3 -23 -6 0 -11 -6 -11 -14 0
-8 -5 -18 -11 -22 -13 -7 -9 8 23 99 21 58 35 77 24 31z m1241 -146 c-3 -8 -6
-5 -6 6 -1 11 2 17 5 13 3 -3 4 -12 1 -19z m-1441 -67 l-21 -69 -558 1 c-307
0 -556 2 -553 4 28 28 171 105 212 114 65 15 110 5 252 -57 94 -41 106 -44
141 -34 39 10 51 25 51 61 0 31 61 24 153 -17 109 -50 157 -46 253 19 38 26
74 47 80 47 8 0 4 -24 -10 -69z m138 37 c-4 -13 -7 -27 -6 -31 1 -5 -2 -6 -7
-3 -6 4 -6 17 1 37 6 16 12 28 15 25 3 -2 1 -15 -3 -28z m1326 8 c0 -2 -7 -9
-15 -16 -13 -11 -14 -10 -9 4 5 14 24 23 24 12z m-1340 -60 c0 -3 -4 -8 -10
-11 -5 -3 -10 -1 -10 4 0 6 5 11 10 11 6 0 10 -2 10 -4z m-30 -81 c-6 -19 -8
-40 -4 -46 4 -8 3 -9 -4 -5 -7 4 -12 2 -12 -5 0 -7 -3 -10 -6 -7 -3 4 2 32 12
63 10 31 20 52 22 46 2 -6 -2 -27 -8 -46z m1296 -50 c-13 -19 -25 -25 -53 -25
-44 0 -40 8 5 12 24 2 35 9 45 30 6 16 14 23 15 18 2 -6 -3 -22 -12 -35z
m-1426 25 c0 -13 -11 -13 -30 0 -12 8 -11 10 8 10 12 0 22 -4 22 -10z m-1259
-10 c74 0 77 -1 81 -25 l5 -25 -118 0 -119 0 0 31 c0 31 1 31 38 25 20 -3 71
-6 113 -6z m1429 -16 c0 -2 -7 -4 -15 -4 -8 0 -15 4 -15 10 0 5 7 7 15 4 8 -4
15 -8 15 -10z m83 -1 c-13 -2 -35 -2 -50 0 -16 2 -5 4 22 4 28 0 40 -2 28 -4z
m84 1 c-3 -3 -12 -4 -19 -1 -8 3 -5 6 6 6 11 1 17 -2 13 -5z m3251 -70 c22 -6
23 -10 20 -90 l-3 -84 -1415 -1 c-778 0 -2222 -1 -3207 0 l-1793 1 0 74 c0 41
3 81 6 90 6 15 296 16 3188 16 1749 0 3191 -3 3204 -6z m-3197 -481 c1 -328 5
-374 42 -411 l26 -26 193 2 c112 1 199 -2 208 -7 11 -7 21 -4 36 10 14 13 29
19 42 15 10 -4 55 -45 98 -93 l79 -87 5 -505 c3 -278 7 -501 9 -496 2 6 2 229
1 498 -1 287 2 487 7 487 5 0 22 -14 39 -31 16 -17 83 -77 149 -132 123 -105
362 -334 354 -340 -2 -2 -80 -75 -174 -163 -93 -87 -197 -182 -230 -209 -79
-66 -135 -117 -149 -135 -6 -8 -53 -56 -105 -108 l-94 -93 -23 22 c-20 19 -24
33 -26 93 l-2 71 -3 -70 c-2 -38 -10 -83 -17 -100 -16 -33 -11 -78 10 -96 22
-18 71 6 77 39 6 27 222 242 527 523 80 74 163 151 185 171 41 38 59 46 70 28
10 -16 253 -230 360 -317 55 -45 118 -101 141 -125 22 -23 86 -87 142 -141 69
-67 102 -106 102 -120 0 -39 28 -67 65 -67 52 0 72 51 39 98 -14 21 -17 21
-44 7 -31 -16 -33 -14 -177 122 l-33 31 0 109 c0 59 -2 296 -4 526 l-4 419 84
84 83 84 37 -17 36 -18 -6 -53 c-4 -35 -3 -51 4 -47 5 3 10 30 10 60 0 32 5
57 13 62 6 4 126 8 265 8 l252 0 -2 -1240 -3 -1240 -1043 -3 -1043 -2 7 35 c3
20 1 47 -5 63 -17 40 -102 92 -222 137 -125 46 -455 198 -481 221 -13 13 -18
31 -18 71 0 51 1 53 26 53 l27 0 -7 88 c-4 48 -8 101 -11 118 -2 18 -7 63 -10
100 -10 116 -26 277 -30 314 -2 19 -9 96 -15 170 -5 74 -15 178 -20 230 -5 52
-17 172 -25 265 -8 94 -24 253 -35 355 -11 102 -32 290 -45 418 -27 244 -44
313 -98 399 -37 58 -103 110 -169 135 -32 11 -58 22 -58 24 0 2 131 4 290 4
l290 0 1 -277z m267 88 l-3 -189 285 5 c157 3 287 7 289 9 2 2 -121 4 -275 4
l-279 0 -3 179 -2 179 775 1 c426 1 776 1 777 -1 1 -2 5 -84 8 -183 l6 -180 2
178 2 178 270 -3 c149 -2 270 0 270 5 0 4 70 7 155 7 l155 0 0 -185 0 -185
-87 -2 -88 -2 88 -3 87 -4 0 -149 0 -150 -62 -1 c-35 -1 -145 -2 -244 -3
l-182 -1 -5 38 c-6 45 -8 48 -33 48 -119 -1 -304 -16 -304 -24 0 -6 40 -7 114
-3 l114 7 -8 -34 c-5 -25 -28 -54 -80 -103 -97 -92 -140 -116 -220 -125 l-65
-7 67 2 68 2 -38 -30 c-20 -17 -78 -69 -128 -116 -194 -181 -319 -296 -352
-322 l-33 -27 -32 35 c-37 43 -244 235 -380 354 l-98 85 38 6 38 6 -41 2 c-38
1 -50 9 -137 91 -100 95 -146 155 -130 171 5 5 130 10 278 12 l270 2 -275 3
c-223 2 -279 5 -294 17 -48 36 -106 4 -106 -57 l0 -28 -187 2 -188 3 -16 50
c-13 39 -18 109 -22 332 -3 155 -3 284 1 287 3 3 59 6 124 6 l119 0 -3 -189z
m2603 -1472 c-1 -843 -3 -1534 -5 -1537 -3 -2 -32 -1 -65 3 l-61 7 -1 936 c-1
516 -1 1185 0 1487 0 303 1 562 1 577 0 25 6 29 63 47 34 10 64 17 66 16 1 -2
3 -693 2 -1536z m-5046 1520 c6 -7 7 -3037 1 -3048 -2 -3 -34 -4 -70 -3 l-66
4 -2 351 c-1 194 -1 804 1 1357 1 553 2 1083 1 1179 l0 173 65 -4 c35 -2 67
-6 70 -9z m-1863 -461 c2 -25 0 -44 -4 -41 -5 2 -7 30 -7 61 1 62 6 53 11 -20z
m1651 -175 c-18 -2 -48 -2 -65 0 -18 2 -4 4 32 4 36 0 50 -2 33 -4z m1437 -55
c18 -39 128 -842 205 -1481 19 -158 37 -292 40 -297 3 -6 17 -10 29 -10 20 0
24 -6 29 -42 3 -24 3 -113 0 -198 l-6 -156 -171 74 c-476 206 -446 187 -446
274 0 30 5 39 27 50 l27 13 -3 763 -3 762 36 40 c34 38 36 44 36 108 0 37 -5
74 -10 82 -7 10 -8 -7 -4 -55 6 -76 -6 -125 -31 -125 -15 0 -17 5 -17 35 0 8
0 51 1 95 l1 79 63 4 c174 10 187 9 197 -15z m2862 -355 c2 -164 2 -394 -1
-512 l-6 -214 -70 77 c-38 43 -92 94 -120 114 -27 20 -75 59 -105 87 -31 27
-82 73 -115 100 -33 28 -82 71 -110 98 l-50 48 100 95 c172 163 448 404 464
404 4 0 10 -134 13 -297z m-2785 175 c-3 -8 -6 -5 -6 6 -1 11 2 17 5 13 3 -3
4 -12 1 -19z m-1477 -972 l0 -874 -22 -6 c-13 -3 -64 -6 -114 -6 l-91 0 -6
641 c-4 352 -4 748 0 880 l6 239 114 0 113 0 0 -874z m414 847 c3 -16 13 -147
21 -293 9 -146 18 -294 21 -330 21 -270 36 -492 44 -650 6 -102 12 -190 15
-197 2 -6 14 -13 27 -15 22 -3 23 -7 22 -78 -1 -41 -8 -103 -15 -137 l-14 -61
-25 13 c-18 10 -64 14 -157 15 l-133 0 0 880 0 880 94 0 94 0 6 -27z m-684
-632 l0 -230 -53 -6 c-29 -4 -66 -5 -82 -3 l-30 3 -3 233 -2 232 85 0 85 0 0
-229z m10 -680 c0 -226 -3 -412 -7 -414 -5 -2 -47 -2 -94 1 l-87 4 -1 409 -2
409 95 0 96 0 0 -409z m6378 371 c10 -7 8 -15 -9 -35 -11 -15 -25 -24 -31 -21
-7 4 -8 2 -4 -4 9 -14 -39 -46 -55 -36 -8 4 -9 3 -5 -5 5 -7 -12 -20 -51 -37
-32 -14 -66 -29 -75 -35 -26 -13 -22 0 15 60 33 55 81 90 149 110 43 12 50 12
66 3z m-574 -83 c39 -14 68 -34 96 -66 22 -25 40 -50 40 -54 0 -17 -115 3
-157 27 -38 22 -103 89 -103 106 0 15 70 8 124 -13z m324 -406 l202 -6 0 -57
0 -57 -104 -7 c-57 -3 -154 -3 -215 0 -99 6 -111 5 -111 -9 0 -15 21 -17 201
-17 l202 0 -7 -37 c-4 -21 -18 -106 -31 -189 -13 -83 -32 -173 -42 -200 l-19
-49 -59 -3 c-33 -2 -111 -1 -173 3 l-114 7 -15 36 c-8 20 -30 116 -49 212 -19
96 -36 185 -39 198 -5 21 -2 22 44 22 41 0 49 3 45 15 -4 11 -21 15 -59 15
l-53 0 -5 58 c-2 31 -3 60 0 65 5 9 134 9 401 0z m-4975 -20 c-7 -2 -19 -2
-25 0 -7 3 -2 5 12 5 14 0 19 -2 13 -5z m-1323 -321 c0 -5 -18 -23 -39 -40
-78 -63 -100 -158 -51 -224 l20 -27 -339 -3 -340 -3 33 35 c19 19 39 46 46 59
24 46 -13 156 -61 181 -10 6 -19 15 -19 20 0 6 141 10 375 10 206 0 375 -4
375 -8z m430 -142 l0 -150 -105 0 -105 0 25 50 c22 44 24 56 16 88 -17 60 -56
108 -113 136 l-52 26 167 0 167 0 0 -150z m416 119 c-42 -35 -75 -98 -76 -142
0 -34 14 -63 47 -98 l25 -27 -96 -1 -96 -1 0 148 0 148 118 3 117 2 -39 -32z"/>
<path d="M6800 8300 c-29 -29 -35 -66 -16 -95 9 -14 22 -25 29 -25 9 0 13 -86
15 -370 3 -264 1 -370 -7 -370 -20 0 -51 -40 -51 -65 0 -19 10 -29 39 -45 25
-12 42 -16 46 -10 11 17 22 11 77 -43 29 -29 115 -110 191 -181 75 -71 137
-132 137 -136 0 -4 -85 -93 -189 -198 -124 -126 -196 -192 -210 -192 -20 0
-20 4 -21 307 0 169 -2 309 -5 311 -3 3 -5 -133 -5 -301 l0 -307 -24 -16 c-33
-21 -43 -69 -20 -95 20 -22 71 -25 93 -5 13 12 84 15 383 18 203 2 368 7 368
11 0 4 -165 7 -367 6 l-368 -1 -6 23 c-5 21 21 51 190 221 108 109 199 198
203 198 4 0 74 -65 155 -143 178 -172 232 -221 238 -215 5 4 -116 125 -297
298 -80 75 -91 95 -60 104 10 3 94 83 187 176 155 156 172 170 197 165 26 -6
28 -10 29 -58 1 -40 3 -46 9 -27 4 14 5 37 3 51 -4 21 0 29 16 34 14 4 21 15
21 30 0 28 -20 75 -32 75 -4 0 -8 168 -8 374 l0 374 25 16 c50 33 22 116 -39
116 -45 0 -68 -27 -64 -77 3 -33 7 -39 36 -48 l32 -9 0 -367 0 -368 -22 -3
c-17 -2 -64 39 -215 192 l-194 195 181 177 c163 160 196 198 172 198 -4 0 -88
-81 -187 -180 -98 -99 -180 -180 -182 -180 -2 0 -34 30 -71 68 -37 37 -122
119 -189 183 -107 101 -123 120 -123 148 0 34 -37 81 -65 81 -8 0 -24 -9 -35
-20z m249 -267 c64 -60 138 -132 165 -161 l50 -53 -196 -194 c-139 -139 -201
-193 -212 -189 -14 5 -16 47 -16 375 l0 370 23 9 c18 7 26 3 46 -20 13 -16 76
-78 140 -137z m426 -420 c193 -197 194 -198 188 -235 -5 -32 -31 -63 -184
-215 -98 -98 -185 -179 -192 -181 -8 -2 -99 79 -201 180 -145 142 -188 190
-192 215 -6 30 3 41 187 232 107 110 195 200 196 200 2 1 90 -88 198 -196z"/>
<path d="M5934 8253 l-491 -3 -7 -63 c-3 -34 -3 -264 0 -511 l7 -449 120 7
c66 3 296 6 512 6 l391 0 -1 508 c0 500 0 507 -20 507 -11 0 -241 -1 -511 -2z
m506 -509 l0 -484 -490 0 -490 0 0 483 0 482 490 2 490 2 0 -485z"/>
<path d="M6923 8254 c9 -9 717 -11 717 -2 0 4 -163 8 -362 8 -199 0 -359 -3
-355 -6z"/>
<path d="M7962 7858 l0 -388 459 0 460 0 -2 -119 c-1 -65 -4 -130 -6 -145 l-5
-26 -383 0 c-210 0 -410 3 -444 6 l-61 7 -1 126 c0 87 -3 117 -9 97 -10 -33
-11 -102 -11 -608 l1 -368 53 2 c49 1 50 2 10 5 l-42 4 2 356 2 355 442 -3
443 -4 0 -240 c0 -132 3 -290 7 -352 l6 -112 -79 -4 -79 -3 85 0 85 1 0 900 0
900 -467 0 -466 0 0 -387z m880 348 c6 -8 8 -8 8 2 0 6 5 12 10 12 6 0 10 -77
10 -210 l0 -210 -440 0 -439 0 -3 209 -3 210 425 -1 c308 0 427 -3 432 -12z
m28 -570 l0 -146 -440 0 -440 0 0 143 0 142 440 4 440 3 0 -146z"/>
<path d="M7833 7267 c28 -29 63 -61 77 -72 14 -11 -6 13 -45 53 -38 40 -73 72
-77 72 -4 0 16 -24 45 -53z"/>
<path d="M6833 7265 c0 -22 2 -30 4 -17 2 12 2 30 0 40 -3 9 -5 -1 -4 -23z"/>
<path d="M7732 6893 c-2 -304 -3 -313 -22 -313 -26 0 -42 -32 -38 -78 3 -33 7
-38 40 -46 66 -16 89 34 48 102 -18 30 -20 53 -23 340 l-2 307 -3 -312z"/>
<path d="M5768 7018 c81 -6 169 -6 225 0 80 8 64 9 -133 9 l-225 0 133 -9z"/>
<path d="M6444 7014 c3 -8 7 -34 7 -57 1 -40 2 -40 9 -12 13 50 11 73 -6 79
-12 5 -15 2 -10 -10z"/>
<path d="M5437 6978 c6 -50 13 -63 13 -24 0 15 5 36 10 47 9 16 7 19 -8 19
-17 0 -19 -6 -15 -42z"/>
<path d="M5508 7013 c17 -2 47 -2 65 0 17 2 3 4 -33 4 -36 0 -50 -2 -32 -4z"/>
<path d="M5447 6733 c-11 -10 -8 -776 3 -793 6 -10 10 121 10 380 l0 395 490
3 490 3 0 -238 c0 -336 5 -531 13 -539 4 -4 7 173 7 394 l0 402 -503 0 c-277
0 -507 -3 -510 -7z"/>
<path d="M8215 6450 c-44 -4 37 -5 180 -2 143 2 262 6 264 8 7 6 -358 1 -444
-6z"/>
<path d="M6875 6150 l-40 -5 0 -193 -1 -192 3 188 3 189 699 6 c384 4 799 5
922 3 224 -5 224 -5 64 5 -161 9 -1575 8 -1650 -1z"/>
<path d="M7060 6030 c-102 -3 267 -8 820 -11 553 -4 1009 -3 1013 1 5 4 -5 11
-22 15 -34 7 -1505 3 -1811 -5z"/>
<path d="M5738 5943 c18 -2 45 -2 60 0 15 2 0 4 -33 4 -33 0 -45 -2 -27 -4z"/>
<path d="M6880 5908 c0 -5 449 -8 997 -8 548 0 994 2 991 5 -8 9 -1988 11
-1988 3z"/>
<path d="M6930 5780 c-45 -5 -34 -7 58 -8 69 -1 112 2 112 8 0 11 -81 11 -170
0z"/>
<path d="M7250 5780 c87 -10 1671 -9 1600 0 -30 5 -417 8 -860 7 -443 0 -776
-3 -740 -7z"/>
<path d="M6830 5671 c0 -3 -2 -204 -4 -446 -2 -327 -2 -380 4 -205 4 129 8
323 9 430 l1 195 1033 0 c567 0 992 3 942 7 -49 4 -490 7 -980 6 -550 -1 -912
3 -947 9 -32 5 -58 7 -58 4z"/>
<path d="M7012 5137 l2 -222 6 145 c4 80 8 177 9 215 l1 70 269 0 c148 0 267
3 264 8 -2 4 -128 7 -279 7 l-274 -1 2 -222z"/>
<path d="M7690 5353 c0 -5 51 -7 112 -5 62 1 178 -1 256 -5 151 -9 206 -1 75
11 -105 8 -443 8 -443 -1z"/>
<path d="M8317 5353 c-3 -5 99 -7 226 -5 339 4 361 8 50 10 -149 1 -274 -1
-276 -5z"/>
<path d="M8879 5138 c4 -271 19 -253 20 25 1 151 -2 197 -11 197 -10 0 -12
-49 -9 -222z"/>
<path d="M6703 4885 c0 -27 2 -38 4 -22 2 15 2 37 0 50 -2 12 -4 0 -4 -28z"/>
<path d="M8884 4850 c-5 -5 -52 -11 -104 -13 l-95 -3 98 -2 97 -2 0 -165 0
-164 -127 -4 -128 -3 138 -2 137 -2 0 185 c0 102 -1 185 -3 185 -2 0 -7 -4
-13 -10z"/>
<path d="M7133 4833 c15 -2 39 -2 55 0 15 2 2 4 -28 4 -30 0 -43 -2 -27 -4z"/>
<path d="M8388 4833 c23 -2 59 -2 80 0 20 2 1 4 -43 4 -44 0 -61 -2 -37 -4z"/>
<path d="M7828 4823 c68 -2 176 -2 240 0 64 1 9 3 -123 3 -132 0 -185 -2 -117
-3z"/>
<path d="M7692 4750 c0 -19 2 -27 5 -17 2 9 2 25 0 35 -3 9 -5 1 -5 -18z"/>
<path d="M8882 4186 l3 -156 -280 -3 -280 -2 288 -3 287 -2 0 154 c0 97 -4
157 -10 161 -8 5 -10 -42 -8 -149z"/>
<path d="M6325 5189 c-4 -6 -5 -12 -2 -15 2 -3 7 2 10 11 7 17 1 20 -8 4z"/>
<path d="M5652 5708 c-17 -17 -15 -28 6 -28 11 0 18 7 18 20 0 23 -7 25 -24 8z"/>
<path d="M5360 5621 c0 -15 7 -19 40 -18 32 1 40 5 40 19 0 11 -7 18 -17 18
-15 0 -16 -2 -3 -10 9 -6 10 -10 3 -10 -6 0 -15 5 -18 10 -11 18 -45 11 -45
-9z"/>
<path d="M5221 5598 c-8 -21 -8 -35 -1 -42 5 -5 10 -8 11 -5 3 11 6 79 3 79
-1 0 -7 -14 -13 -32z"/>
<path d="M5254 5606 c-7 -29 3 -66 18 -66 6 0 7 7 3 18 -5 9 -8 29 -8 45 1 33
-5 35 -13 3z"/>
<path d="M5240 5535 c0 -3 7 -14 16 -23 15 -14 16 -14 13 3 -4 17 -29 35 -29
20z"/>
<path d="M5620 5370 c0 -5 5 -10 10 -10 6 0 10 5 10 10 0 6 -4 10 -10 10 -5 0
-10 -4 -10 -10z"/>
<path d="M5596 5345 c4 -8 8 -15 10 -15 2 0 4 7 4 15 0 8 -4 15 -10 15 -5 0
-7 -7 -4 -15z"/>
<path d="M5901 5344 c0 -11 3 -14 6 -6 3 7 2 16 -1 19 -3 4 -6 -2 -5 -13z"/>
<path d="M6040 5271 c0 -6 9 -9 20 -8 11 1 20 5 20 9 0 4 -9 8 -20 8 -11 0
-20 -4 -20 -9z"/>
<path d="M5895 5153 c4 -15 2 -23 -6 -23 -7 0 -10 -3 -6 -6 3 -3 12 -2 20 3
14 7 14 10 0 28 -15 20 -15 20 -8 -2z"/>
<path d="M5600 5140 c0 -5 7 -10 15 -10 8 0 15 5 15 10 0 6 -7 10 -15 10 -8 0
-15 -4 -15 -10z"/>
<path d="M5817 5139 c7 -7 15 -10 18 -7 3 3 -2 9 -12 12 -14 6 -15 5 -6 -5z"/>
<path d="M5654 3350 c0 -168 2 -236 3 -152 2 83 2 221 0 305 -1 83 -3 15 -3
-153z"/>
<path d="M7327 3513 c-11 -10 -8 -83 3 -83 6 0 10 20 10 45 0 46 -2 50 -13 38z"/>
<path d="M7333 3225 c0 -118 2 -145 6 -90 3 44 3 121 0 170 -4 68 -6 49 -6
-80z"/>
<path d="M7334 2830 c0 -107 2 -151 3 -97 2 53 2 141 0 195 -1 53 -3 9 -3 -98z"/>
<path d="M5652 2985 c0 -16 2 -22 5 -12 2 9 2 23 0 30 -3 6 -5 -1 -5 -18z"/>
<path d="M5648 2719 c-2 -111 0 -206 4 -212 4 -7 8 74 8 178 0 105 3 200 6
213 4 13 2 22 -4 22 -8 0 -12 -66 -14 -201z"/>
<path d="M7330 2568 c0 -27 5 -48 10 -48 13 0 13 60 0 80 -7 11 -10 2 -10 -32z"/>
<path d="M6338 2533 c17 -2 47 -2 65 0 17 2 3 4 -33 4 -36 0 -50 -2 -32 -4z"/>
<path d="M6538 2523 c34 -2 90 -2 125 0 34 2 6 3 -63 3 -69 0 -97 -1 -62 -3z"/>
<path d="M7330 2433 c0 -29 5 -53 10 -53 13 0 13 70 0 90 -7 11 -10 0 -10 -37z"/>
<path d="M5740 2240 c0 -6 47 -9 119 -8 66 1 118 6 115 10 -7 12 -234 10 -234
-2z"/>
<path d="M6020 2240 c0 -6 17 -10 37 -10 42 0 38 11 -7 16 -16 2 -30 -1 -30
-6z"/>
<path d="M6145 2240 c3 -5 17 -10 31 -10 13 0 24 5 24 10 0 6 -14 10 -31 10
-17 0 -28 -4 -24 -10z"/>
<path d="M6245 2240 c3 -5 17 -10 31 -10 13 0 24 5 24 10 0 6 -14 10 -31 10
-17 0 -28 -4 -24 -10z"/>
<path d="M6310 2240 c0 -5 7 -10 16 -10 8 0 12 5 9 10 -3 6 -10 10 -16 10 -5
0 -9 -4 -9 -10z"/>
<path d="M6620 2240 c0 -5 14 -10 31 -10 17 0 28 4 24 10 -3 6 -17 10 -31 10
-13 0 -24 -4 -24 -10z"/>
<path d="M6950 2240 c0 -5 14 -10 30 -10 17 0 30 5 30 10 0 6 -13 10 -30 10
-16 0 -30 -4 -30 -10z"/>
<path d="M7085 2240 l-40 -7 37 -2 c20 0 40 4 43 9 3 6 5 9 3 9 -2 -1 -21 -5
-43 -9z"/>
<path d="M7170 2240 c0 -5 12 -10 28 -9 24 0 25 1 7 9 -27 12 -35 12 -35 0z"/>
<path d="M6403 2233 c9 -2 25 -2 35 0 9 3 1 5 -18 5 -19 0 -27 -2 -17 -5z"/>
<path d="M6503 2233 c9 -2 25 -2 35 0 9 3 1 5 -18 5 -19 0 -27 -2 -17 -5z"/>
<path d="M6743 2233 c9 -2 25 -2 35 0 9 3 1 5 -18 5 -19 0 -27 -2 -17 -5z"/>
<path d="M6848 2233 c12 -2 30 -2 40 0 9 3 -1 5 -23 4 -22 0 -30 -2 -17 -4z"/>
<path d="M7552 4260 c0 -14 2 -19 5 -12 2 6 2 18 0 25 -3 6 -5 1 -5 -13z"/>
<path d="M7703 4085 c0 -27 2 -38 4 -22 2 15 2 37 0 50 -2 12 -4 0 -4 -28z"/>
<path d="M6303 4033 c48 -2 126 -2 175 0 48 1 8 3 -88 3 -96 0 -136 -2 -87 -3z"/>
<path d="M7048 4023 c23 -2 59 -2 80 0 20 2 1 4 -43 4 -44 0 -61 -2 -37 -4z"/>
<path d="M7463 4023 c15 -2 39 -2 55 0 15 2 2 4 -28 4 -30 0 -43 -2 -27 -4z"/>
<path d="M6635 3780 c-217 -7 -178 -12 75 -9 107 2 218 2 247 1 29 -1 55 3 58
8 6 10 -73 10 -380 0z"/>
<path d="M6308 3773 c6 -2 18 -2 25 0 6 3 1 5 -13 5 -14 0 -19 -2 -12 -5z"/>
<path d="M6383 3773 c15 -2 39 -2 55 0 15 2 2 4 -28 4 -30 0 -43 -2 -27 -4z"/>
<path d="M6498 3513 c45 -2 119 -2 165 0 45 1 8 3 -83 3 -91 0 -128 -2 -82 -3z"/>
<path d="M4641 8804 c0 -11 3 -14 6 -6 3 7 2 16 -1 19 -3 4 -6 -2 -5 -13z"/>
<path d="M3948 8803 c7 -3 16 -2 19 1 4 3 -2 6 -13 5 -11 0 -14 -3 -6 -6z"/>
<path d="M4078 8803 c7 -3 16 -2 19 1 4 3 -2 6 -13 5 -11 0 -14 -3 -6 -6z"/>
<path d="M3915 8413 c-80 -42 -121 -115 -113 -206 5 -66 33 -107 94 -143 96
-56 199 -21 255 88 24 48 24 91 -2 148 -49 107 -151 157 -234 113z m138 -35
c44 -31 64 -56 83 -106 14 -36 15 -49 5 -82 -15 -52 -60 -102 -111 -125 -39
-17 -42 -18 -77 -1 -128 61 -167 152 -108 253 46 77 144 106 208 61z"/>
<path d="M4437 8383 c-2 -5 -1 -83 1 -175 l4 -168 152 0 c83 0 157 4 164 8 9
6 11 47 5 175 l-6 167 -158 0 c-87 0 -159 -3 -162 -7z m306 -95 c4 -46 7 -116
7 -155 l0 -73 -145 0 -145 0 0 48 c0 27 -3 97 -7 155 l-6 107 145 0 145 0 6
-82z"/>
<path d="M4306 7585 c-42 -100 -106 -301 -100 -314 7 -18 4 -24 83 194 28 77
51 143 51 147 0 21 -21 4 -34 -27z"/>
<path d="M4644 7599 c-3 -5 15 -36 40 -68 25 -33 46 -62 46 -65 0 -2 -22 -39
-50 -80 -27 -42 -50 -78 -50 -80 0 -3 9 -2 19 2 21 8 91 94 91 111 0 24 18 8
55 -49 24 -37 46 -60 57 -60 10 0 18 2 18 5 0 3 -22 38 -50 77 l-50 70 32 44
c17 24 39 52 49 63 25 26 24 31 -5 31 -17 0 -32 -14 -58 -56 l-35 -57 -34 56
c-31 53 -62 76 -75 56z"/>
<path d="M3906 7485 c0 -98 3 -117 20 -136 53 -59 114 -60 164 -3 30 34 30 36
30 144 0 103 -1 110 -20 110 -19 0 -20 -7 -20 -108 0 -100 -2 -110 -23 -130
-29 -28 -68 -28 -93 -1 -16 17 -20 40 -22 130 -3 94 -6 109 -20 109 -15 0 -17
-14 -16 -115z"/>
<path d="M4372 7499 c0 -56 3 -112 8 -124 28 -73 114 -88 174 -31 l36 33 0
112 c0 104 -1 111 -20 111 -19 0 -20 -7 -20 -107 0 -60 -4 -113 -8 -119 -13
-20 -54 -36 -78 -30 -37 10 -49 43 -54 151 -4 81 -8 100 -21 103 -14 3 -16
-11 -17 -99z"/>
<path d="M4222 7530 c0 -19 2 -27 5 -17 2 9 2 25 0 35 -3 9 -5 1 -5 -18z"/>
<path d="M4181 7294 c0 -11 3 -14 6 -6 3 7 2 16 -1 19 -3 4 -6 -2 -5 -13z"/>
<path d="M3932 6798 l-2 -88 173 1 c94 1 251 5 347 9 119 5 65 6 -167 3 l-342
-5 -4 83 -3 84 -2 -87z"/>
<path d="M3993 6863 c9 -2 23 -2 30 0 6 3 -1 5 -18 5 -16 0 -22 -2 -12 -5z"/>
<path d="M4288 6863 c29 -2 74 -2 100 0 26 2 2 3 -53 3 -55 0 -76 -1 -47 -3z"/>
<path d="M4833 6713 c15 -2 37 -2 50 0 12 2 0 4 -28 4 -27 0 -38 -2 -22 -4z"/>
<path d="M3930 6588 c0 -5 218 -8 485 -8 267 0 485 3 485 8 0 4 -218 7 -485 7
-267 0 -485 -3 -485 -7z"/>
<path d="M3930 6473 c0 -5 98 -9 218 -9 183 -2 199 -1 102 6 -158 10 -320 12
-320 3z"/>
<path d="M4642 6469 c130 -4 241 -10 247 -14 6 -3 11 -2 11 3 0 19 -35 22
-263 20 l-232 -1 237 -8z"/>
<path d="M4889 6255 c-3 -2 -115 -6 -250 -7 -134 -2 -305 -5 -379 -9 -74 -3
38 -4 250 -1 212 2 387 6 389 8 2 2 2 6 -1 9 -2 3 -7 3 -9 0z"/>
<path d="M3973 6243 c26 -2 67 -2 90 0 23 2 2 3 -48 3 -49 0 -68 -1 -42 -3z"/>
<path d="M4467 6093 c-4 -3 -6 -38 -5 -77 l2 -71 5 70 c5 58 9 70 24 69 9 0
102 -1 206 -2 171 -2 190 -4 194 -19 4 -14 5 -12 6 5 1 14 -5 22 -16 23 -119
6 -411 7 -416 2z"/>
<path d="M3930 6006 c0 -58 4 -85 13 -87 6 -2 100 -2 207 1 l195 6 -202 2
-203 2 0 75 0 75 203 -2 202 -3 6 -60 6 -60 1 68 2 67 -215 0 -215 0 0 -84z"/>
<path d="M4482 5924 c7 -7 410 -5 417 1 2 3 -92 5 -209 5 -117 0 -211 -3 -208
-6z"/>
<path d="M8310 2847 c0 -76 68 -173 145 -208 43 -20 135 -26 135 -9 0 14 -36
85 -68 132 -32 49 -73 74 -150 92 -61 14 -62 14 -62 -7z m88 -34 c62 -28 93
-54 123 -101 36 -56 36 -62 2 -62 -70 0 -157 72 -173 145 -9 40 -4 42 48 18z"/>
<path d="M8867 2859 c-54 -13 -107 -42 -144 -81 -29 -29 -103 -172 -103 -197
0 -5 -5 -11 -10 -13 -7 -2 -12 -105 -15 -278 -3 -174 -1 -259 5 -230 5 25 9
88 9 141 1 99 17 338 26 375 4 16 15 23 44 27 54 7 139 47 184 86 39 35 103
153 92 170 -7 13 -35 13 -88 0z m46 -36 c-13 -36 -62 -99 -99 -129 -49 -39
-110 -71 -98 -52 6 11 5 11 -8 0 -26 -21 -30 10 -6 49 41 69 101 116 178 140
37 11 40 10 33 -8z"/>
<path d="M8220 2596 c0 -4 12 -29 26 -57 30 -60 96 -134 138 -156 66 -34 186
-55 186 -33 0 6 -13 36 -29 68 -31 61 -96 129 -152 158 -33 17 -169 33 -169
20z m138 -48 c55 -17 162 -125 162 -164 0 -16 -99 16 -145 47 -31 22 -89 92
-101 122 -7 19 8 18 84 -5z"/>
</g>
</svg>
